Coordinates
version=1
nRows=16
nColumns=40
inDegrees=yes

Units are S.I. units (second, meters, Newtons, ...)
Angles are in degrees.

endheader
time	pelvis_tilt	pelvis_list	pelvis_rotation	pelvis_tx	pelvis_ty	pelvis_tz	hip_flexion_r	hip_adduction_r	hip_rotation_r	knee_angle_r	knee_angle_r_beta	ankle_angle_r	subtalar_angle_r	mtp_angle_r	hip_flexion_l	hip_adduction_l	hip_rotation_l	knee_angle_l	knee_angle_l_beta	ankle_angle_l	subtalar_angle_l	mtp_angle_l	lumbar_extension	lumbar_bending	lumbar_rotation	arm_flex_r	arm_add_r	arm_rot_r	elbow_flex_r	pro_sup_r	wrist_flex_r	wrist_dev_r	arm_flex_l	arm_add_l	arm_rot_l	elbow_flex_l	pro_sup_l	wrist_flex_l	wrist_dev_l
      1.03000000	     -2.22118520	     -2.77097833	      3.28497336	     -0.09768389	      0.89143131	      1.48034989	     10.63861293	      4.87136708	    -16.52668032	    -22.13656052	     -0.38635587	      9.95404875	     -1.03793583	      3.80952871	     25.09075917	      7.73007256	      4.71113767	    -66.88485926	     -1.16736101	      4.97043985	     18.91558250	     16.10738182	     -4.32660827	      3.71846531	     -0.10033297	      5.04295448	     -9.91429604	    -17.75263761	     31.25202456	     89.95437384	      0.00000000	      0.00000000	     -4.72647439	      9.31810838	     13.03243465	     31.31223397	     89.95437384	      0.00000000	      0.00000000
      1.04000000	     -2.00723726	     -2.55753541	      2.93693674	     -0.08883725	      0.89205657	      1.48070745	      9.63147898	      4.69298660	    -16.60150122	    -21.90361807	     -0.38229025	     10.08766637	     -0.46109282	      2.27966254	     25.68499319	      7.50461036	      5.25181764	    -65.85403884	     -1.14936980	      6.76974886	     18.96039488	     22.70972280	     -4.62194776	      3.51839027	      0.19413131	      5.42373656	     -9.98355177	    -17.68094033	     32.42711143	     89.95437384	      0.00000000	      0.00000000	     -5.18490666	      9.21972027	     12.97488560	     30.33734902	     89.95437384	      0.00000000	      0.00000000
      1.05000000	     -2.07187938	     -2.50896463	      2.58800298	     -0.08021648	      0.89208891	      1.48127301	      8.96027882	      4.76404568	    -16.41638793	    -21.65211975	     -0.37790078	     10.41309666	     -0.31975336	      2.11469350	     26.59826425	      7.50466504	      5.71406550	    -64.64850047	     -1.12832919	      7.82616142	     19.05160402	     22.54213813	     -4.58614240	      3.46699103	      0.49433562	      5.74097225	    -10.06808683	    -17.54769597	     33.62113723	     89.95437384	      0.00000000	      0.00000000	     -5.59416391	      9.11415167	     12.94476912	     29.24941084	     89.95437384	      0.00000000	      0.00000000
      1.06000000	     -1.97223747	     -2.45853501	      2.17654528	     -0.07146861	      0.89230462	      1.48192944	      8.09607782	      4.84276409	    -16.06076029	    -21.40729195	     -0.37362773	     10.66744921	     -0.07977269	      1.91492933	     27.19570121	      7.58960267	      6.36515042	    -63.14903118	     -1.10215851	      8.89324883	     19.12452626	     22.58688402	     -4.75097021	      3.41583290	      0.90076082	      5.96327512	    -10.17784615	    -17.34283480	     34.98962461	     89.95437384	      0.00000000	      0.00000000	     -5.92325654	      8.99885468	     12.91242494	     28.12467382	     89.95437384	      0.00000000	      0.00000000
      1.07000000	     -1.84908913	     -2.46147192	      1.81817751	     -0.06278609	      0.89248571	      1.48257107	      7.24193139	      4.95609606	    -15.77899342	    -21.27916233	     -0.37139144	     10.93708002	      0.05521371	      1.70808368	     27.72405377	      7.71696755	      6.94807433	    -61.46993506	     -1.07285276	      9.79913311	     19.17736459	     22.77807068	     -4.95378057	      3.40130871	      1.24241172	      6.22204791	    -10.28242591	    -17.11868992	     36.28175959	     89.95437384	      0.00000000	      0.00000000	     -6.25044102	      8.91756776	     12.77856154	     27.08152110	     89.95437384	      0.00000000	      0.00000000
      1.08000000	     -2.02659085	     -2.57558522	      1.64893240	     -0.05439688	      0.89197902	      1.48302259	      6.83511388	      5.12461156	    -15.89514650	    -21.27912518	     -0.37139080	     11.06327646	      0.03718483	      1.63421359	     28.70481509	      7.89657585	      7.35578767	    -59.74264495	     -1.04270586	     10.11502021	     19.24232524	     22.60755298	     -4.80145264	      3.48265172	      1.22058521	      6.73321060	    -10.28316948	    -16.97687659	     37.18847425	     89.95437384	      0.00000000	      0.00000000	     -6.91611353	      8.87928925	     12.67857774	     26.57227238	     89.95437384	      0.00000000	      0.00000000
      1.09000000	     -1.75228029	     -2.33597775	      1.12992132	     -0.04555825	      0.89237271	      1.48342863	      5.67419730	      4.98842307	    -15.25475571	    -20.83075871	     -0.36356533	     11.50895504	      0.40668069	      1.35393517	     28.72445803	      7.72086438	      8.09498263	    -57.47497283	     -1.00312751	     11.12079160	     19.22151348	     23.06723959	     -5.21216468	      3.23363350	      1.88254312	      6.69755436	    -10.55777882	    -16.47863504	     38.84297706	     89.95437384	      0.00000000	      0.00000000	     -6.84675467	      8.74100782	     12.67500843	     25.11498116	     89.95437384	      0.00000000	      0.00000000
      1.10000000	     -1.77480883	     -2.27436880	      0.88880250	     -0.03700930	      0.89207047	      1.48361559	      4.98720851	      4.96735190	    -15.08234850	    -20.67023226	     -0.36076361	     11.76847090	      0.55545056	      1.16437773	     29.23810069	      7.63820470	      8.54325627	    -55.26079506	     -0.96448282	     11.41659281	     19.20647864	     23.23092954	     -5.26083382	      3.13655750	      2.07595514	      6.93190797	    -10.71299498	    -16.02720557	     40.05029012	     89.95437384	      0.00000000	      0.00000000	     -7.21301666	      8.67178718	     12.50735567	     24.28324526	     89.95437384	      0.00000000	      0.00000000
      1.11000000	     -1.93219459	     -2.38992353	      0.66906992	     -0.02858372	      0.89146124	      1.48380946	      4.50876306	      5.10966659	    -15.07963407	    -20.63061300	     -0.36007212	     11.95782767	      0.59955481	      1.04044438	     29.88668781	      7.76332058	      8.94625392	    -52.89134231	     -0.92312807	     11.47188535	     19.17736148	     23.21943412	     -5.17339085	      3.23540298	      2.27269369	      7.21613018	    -10.87126130	    -15.66425901	     41.07923215	     89.95437384	      0.00000000	      0.00000000	     -7.60133603	      8.57654923	     12.40200300	     23.64988456	     89.95437384	      0.00000000	      0.00000000
      1.12000000	     -1.84411296	     -2.21494031	      0.42208406	     -0.02006165	      0.89127889	      1.48368949	      3.68823381	      4.93414916	    -14.79302880	    -20.44125483	     -0.35676720	     12.09954719	      0.79688115	      0.82778441	     30.09797699	      7.58613321	      9.61658800	    -50.27706716	     -0.87750036	     11.28750531	     19.14841561	     23.33778384	     -5.38174621	      3.03577937	      2.51418092	      7.37331599	    -11.11230715	    -15.09420987	     42.33383798	     89.95437384	      0.00000000	      0.00000000	     -7.72250832	      8.47234202	     12.30490627	     22.61676600	     89.95437384	      0.00000000	      0.00000000
      1.13000000	     -2.14026348	     -2.51364932	      0.33372808	     -0.01167324	      0.89024453	      1.48375857	      3.37664940	      5.24992549	    -14.99307842	    -20.40280758	     -0.35609617	     12.27450619	      0.80355240	      0.74802356	     30.91520310	      7.87536479	     10.00090619	    -47.81833833	     -0.83458745	     11.27163067	     19.04259382	     23.20920667	     -5.12065705	      3.32112324	      2.49073728	      7.72742683	    -11.17360200	    -14.84175352	     43.13573596	     89.95437384	      0.00000000	      0.00000000	     -8.24436903	      8.37621152	     12.21208370	     22.22481676	     89.95437384	      0.00000000	      0.00000000
      1.14000000	     -1.86951343	     -2.11063165	     -0.00272520	     -0.00305588	      0.89042706	      1.48338701	      2.33365050	      4.73755002	    -14.83655263	    -20.20235449	     -0.35259760	     12.56780494	      1.28717685	      0.36886977	     30.56115777	      7.34471175	     10.68964488	    -44.56297893	     -0.77777071	     10.70094986	     18.88633648	     22.90740160	     -5.55799121	      2.86506886	      2.89628400	      7.86699438	    -11.47198892	    -14.24616449	     44.24757548	     89.95437384	      0.00000000	      0.00000000	     -8.18880297	      8.26580438	     12.17765118	     21.21942327	     89.95437384	      0.00000000	      0.00000000
      1.15000000	     -2.09008154	     -2.09680278	     -0.11521948	      0.00533151	      0.88954316	      1.48292677	      1.90340772	      4.65985478	    -14.88283507	    -20.10877368	     -0.35096431	     12.82487381	      1.61767221	      0.10041704	     31.02480518	      7.14280205	     11.02685971	    -41.69197531	     -0.72766224	     10.40895965	     18.63488871	     22.43853413	     -5.41252903	      2.82958107	      2.94812248	      8.06411093	    -11.71969008	    -13.63743211	     45.12392545	     89.95437384	      0.00000000	      0.00000000	     -8.42367438	      8.15808324	     12.05332724	     20.57115253	     89.95437384	      0.00000000	      0.00000000
      1.16000000	     -2.08912196	     -1.98946960	     -0.25206293	      0.01405254	      0.88900056	      1.48240989	      1.24680743	      4.41500461	    -15.17763066	    -20.13277288	     -0.35138317	     12.99958542	      2.19534835	     -0.34170728	     31.09211261	      6.88108116	     11.51390532	    -38.73320504	     -0.67602196	     10.15935491	     18.24941508	     21.52168599	     -5.49410548	      2.67921308	      3.06412871	      8.26456025	    -11.90546860	    -13.22838198	     45.87744322	     89.95437384	      0.00000000	      0.00000000	     -8.63058936	      8.05663989	     11.97900708	     20.04269563	     89.95437384	      0.00000000	      0.00000000
      1.17000000	     -2.21504281	     -1.93747749	     -0.34894859	      0.02275383	      0.88810857	      1.48171015	      0.72050935	      4.14377577	    -15.79390624	    -20.06656259	     -0.35022759	     12.76270286	      3.13744746	     -4.37174483	     31.34097360	      6.72057409	     12.11243285	    -35.87149853	     -0.62607576	      9.33251828	     17.84921117	     16.80975569	     -5.43033173	      2.60293038	      3.10912506	      8.43382228	    -12.12355007	    -12.77200571	     46.58014113	     89.95437384	      0.00000000	      0.00000000	     -8.90112747	      7.92705435	     11.97146246	     19.68813658	     89.95437384	      0.00000000	      0.00000000
      1.18000000	     -2.60904943	     -2.16684263	     -0.46105820	      0.03125669	      0.88669992	      1.48126409	      0.54204214	      4.33603314	    -15.81801432	    -20.06281680	     -0.35016221	     12.87933195	      3.19590798	     -4.39934603	     32.06244803	      6.87601432	     12.50344453	    -33.46074371	     -0.58400015	      9.05632169	     17.04738050	     16.61231773	     -5.06580865	      2.81276881	      3.18632515	      8.55107790	    -12.34255971	    -12.32876804	     47.18910585	     89.95437384	      0.00000000	      0.00000000	     -9.21599932	      7.81001719	     11.91725796	     19.48218553	     89.95437384	      0.00000000	      0.00000000
